<svg xmlns="http://www.w3.org/2000/svg" width="1200" height="300" viewBox="0 0 1200 300" fill="none" role="img" aria-label="KlarPDF — PDF viewer + editor">
  <defs>
    <linearGradient id="g" x1="0" y1="0" x2="1" y2="1">
      <stop offset="0" stop-color="#13B8A6"/><stop offset="1" stop-color="#3B82F6"/>
    </linearGradient>
  </defs>
  <rect width="1200" height="300" rx="24" fill="url(#g)"/>
  <g transform="translate(358.27 49.84) scale(0.7765)" fill="none" stroke="#FFFFFF"
     stroke-width="11" stroke-linecap="round" stroke-linejoin="round">
    <path d="M66 190 L66 60 Q66 44 82 44 L150 44"/>
    <path d="M92 60 L146 60 L182 96 L182 198 Q182 214 166 214 L96 214 Q80 214 80 198 L80 74 Q80 60 92 60 Z"/>
    <path d="M146 60 L146 96 L182 96"/>
    <path d="M80 156 L182 156"/>
    <path d="M80 182 L182 182"/>
    <path d="M131 159 L142 169 L131 179 L120 169 Z" fill="#FFFFFF" stroke="none"/>
  </g>
  <path transform="translate(526.95 169.76)" fill="#FFFFFF" d="M9.75 0Q8.09 0 7.02 -1.11Q5.95 -2.22 5.95 -3.86V-52.38Q5.95 -54.02 7.02 -55.13Q8.09 -56.24 9.75 -56.24Q11.4 -56.24 12.47 -55.13Q13.55 -54.02 13.55 -52.38V-3.86Q13.55 -2.22 12.47 -1.11Q11.4 0 9.75 0ZM34.47 -40.09Q35.93 -40.09 37.01 -38.89Q38.09 -37.7 38.09 -36.5Q38.09 -34.96 36.59 -33.65L12.84 -12.37L12.52 -21.15L31.71 -38.89Q32.91 -40.09 34.47 -40.09ZM35.44 -.06Q33.8 -.06 32.64 -1.33L17.5 -17.4L23.26 -22.69L38.09 -6.65Q39.29 -5.4 39.29 -3.8Q39.29 -2.13 37.97 -1.09Q36.65 -.06 35.44 -.06ZM55.45 -3.86Q55.45 -2.22 54.34 -1.11Q53.23 0 51.6 0Q50 0 48.93 -1.11Q47.86 -2.22 47.86 -3.86V-52.38Q47.86 -54.02 48.97 -55.13Q50.08 -56.24 51.71 -56.24Q53.37 -56.24 54.41 -55.13Q55.45 -54.02 55.45 -52.38ZM99.03 -40.55Q100.69 -40.55 101.76 -39.46Q102.83 -38.38 102.83 -36.69V-3.86Q102.83 -2.22 101.75 -1.11Q100.67 0 99.03 0Q97.38 0 96.31 -1.11Q95.23 -2.22 95.23 -3.86V-9.35L96.79 -9.08Q96.79 -7.73 95.69 -6.05Q94.59 -4.37 92.69 -2.83Q90.79 -1.29 88.21 -.27Q85.64 .76 82.64 .76Q77.43 .76 73.24 -1.93Q69.05 -4.62 66.63 -9.32Q64.21 -14.02 64.21 -20.06Q64.21 -26.18 66.64 -30.86Q69.07 -35.53 73.2 -38.19Q77.34 -40.85 82.41 -40.85Q85.68 -40.85 88.45 -39.81Q91.23 -38.78 93.28 -37.11Q95.33 -35.44 96.46 -33.55Q97.59 -31.67 97.59 -30.04L95.23 -29.77V-36.69Q95.23 -38.32 96.31 -39.43Q97.38 -40.55 99.03 -40.55ZM83.53 -6.23Q87.1 -6.23 89.82 -8.05Q92.54 -9.86 94.07 -13.01Q95.6 -16.15 95.6 -20.06Q95.6 -23.98 94.07 -27.1Q92.54 -30.23 89.82 -32.04Q87.1 -33.86 83.53 -33.86Q80.03 -33.86 77.32 -32.06Q74.6 -30.27 73.06 -27.15Q71.52 -24.04 71.52 -20.06Q71.52 -16.15 73.05 -13.01Q74.58 -9.86 77.3 -8.05Q80.02 -6.23 83.53 -6.23ZM116.72 0Q115.06 0 113.99 -1.11Q112.92 -2.22 112.92 -3.86V-36.12Q112.92 -37.75 114 -38.86Q115.08 -39.98 116.72 -39.98Q118.37 -39.98 119.44 -38.86Q120.52 -37.75 120.52 -36.12V-27.55L119.8 -30.88Q120.42 -32.98 121.68 -34.8Q122.93 -36.61 124.68 -37.98Q126.43 -39.35 128.56 -40.1Q130.7 -40.85 133.06 -40.85Q135.03 -40.85 136.51 -39.8Q137.98 -38.76 137.98 -37.16Q137.98 -35.11 136.91 -34.17Q135.85 -33.23 134.56 -33.23Q133.36 -33.23 132.32 -33.72Q131.27 -34.2 129.83 -34.2Q128.19 -34.2 126.55 -33.35Q124.91 -32.51 123.54 -30.88Q122.17 -29.26 121.34 -27.05Q120.52 -24.83 120.52 -22.12V-3.86Q120.52 -2.22 119.44 -1.11Q118.35 0 116.72 0ZM164.38 -40.66Q169.65 -40.66 173.8 -38.01Q177.95 -35.36 180.38 -30.73Q182.81 -26.11 182.81 -20.03Q182.81 -13.96 180.38 -9.3Q177.95 -4.64 173.84 -1.98Q169.74 .68 164.61 .68Q161.7 .68 159.13 -.24Q156.56 -1.16 154.55 -2.63Q152.55 -4.1 151.31 -5.77Q150.08 -7.43 149.77 -8.85L151.79 -9.86V11.34Q151.79 12.98 150.71 14.09Q149.64 15.2 147.99 15.2Q146.35 15.2 145.27 14.12Q144.19 13.03 144.19 11.34V-36.23Q144.19 -37.87 145.26 -38.98Q146.33 -40.09 147.99 -40.09Q149.64 -40.09 150.71 -38.98Q151.79 -37.87 151.79 -36.23V-31.01L150.57 -31.65Q150.84 -33.1 152.03 -34.67Q153.23 -36.23 155.11 -37.61Q156.99 -38.99 159.38 -39.82Q161.76 -40.66 164.38 -40.66ZM163.49 -33.67Q159.9 -33.67 157.19 -31.88Q154.48 -30.1 152.95 -27.04Q151.42 -23.98 151.42 -20.03Q151.42 -16.15 152.95 -13.01Q154.48 -9.88 157.19 -8.09Q159.9 -6.31 163.49 -6.31Q167.06 -6.31 169.74 -8.09Q172.42 -9.88 173.96 -13.01Q175.5 -16.15 175.5 -20.03Q175.5 -23.96 173.96 -27.03Q172.42 -30.1 169.74 -31.88Q167.06 -33.67 163.49 -33.67ZM223.7 -56.24Q225.35 -56.24 226.42 -55.16Q227.5 -54.07 227.5 -52.38V-3.86Q227.5 -2.22 226.41 -1.11Q225.33 0 223.7 0Q222.04 0 220.97 -1.11Q219.9 -2.22 219.9 -3.86V-9.35L221.45 -9.25Q221.45 -7.87 220.36 -6.16Q219.27 -4.45 217.36 -2.88Q215.45 -1.31 212.87 -.28Q210.3 .76 207.3 .76Q202.11 .76 197.92 -1.92Q193.73 -4.6 191.3 -9.29Q188.87 -13.98 188.87 -20.03Q188.87 -26.12 191.3 -30.82Q193.73 -35.51 197.86 -38.18Q202 -40.85 207.07 -40.85Q210.3 -40.85 213.06 -39.81Q215.83 -38.78 217.89 -37.11Q219.95 -35.44 221.1 -33.55Q222.25 -31.67 222.25 -30.04L219.9 -29.77V-52.38Q219.9 -54.02 220.97 -55.13Q222.04 -56.24 223.7 -56.24ZM208.19 -6.23Q211.78 -6.23 214.49 -8.04Q217.2 -9.84 218.73 -12.98Q220.26 -16.11 220.26 -20.03Q220.26 -24 218.73 -27.12Q217.2 -30.25 214.48 -32.05Q211.76 -33.86 208.19 -33.86Q204.7 -33.86 201.98 -32.05Q199.26 -30.25 197.72 -27.12Q196.18 -24 196.18 -20.03Q196.18 -16.13 197.72 -13Q199.26 -9.86 201.98 -8.05Q204.7 -6.23 208.19 -6.23ZM256.22 -56.14Q257.7 -56.14 259.21 -55.77Q260.72 -55.38 261.76 -54.5Q262.79 -53.62 262.79 -52.14Q262.79 -50.58 261.86 -49.63Q260.93 -48.68 259.69 -48.68Q258.99 -48.68 257.7 -49.05Q256.41 -49.42 255.12 -49.42Q253.31 -49.42 252.25 -48.62Q251.18 -47.82 250.74 -46.64Q250.29 -45.47 250.29 -44.29V-3.86Q250.29 -2.22 249.21 -1.11Q248.12 0 246.49 0Q244.84 0 243.76 -1.11Q242.69 -2.22 242.69 -3.86V-44.23Q242.69 -49.46 246.17 -52.8Q249.64 -56.14 256.22 -56.14ZM257.72 -39.29Q259.24 -39.29 260.25 -38.3Q261.27 -37.32 261.27 -35.8Q261.27 -34.28 260.25 -33.29Q259.24 -32.3 257.72 -32.3H238.09Q236.59 -32.3 235.56 -33.3Q234.54 -34.3 234.54 -35.8Q234.54 -37.34 235.56 -38.31Q236.59 -39.29 238.09 -39.29Z"/>
  <path transform="translate(526.95 205.56)" fill="#FFFFFF" opacity="0.82" d="M1.07 0V-9.16H4.86Q5.86 -9.16 6.55 -8.84Q7.24 -8.51 7.6 -7.88Q7.96 -7.26 7.96 -6.37Q7.96 -5.48 7.6 -4.85Q7.24 -4.22 6.55 -3.89Q5.86 -3.56 4.86 -3.56H2.41V0ZM2.41 -4.64H4.67Q5.65 -4.64 6.15 -5.08Q6.64 -5.52 6.64 -6.37Q6.64 -7.21 6.15 -7.65Q5.65 -8.09 4.67 -8.09H2.41ZM11.24 0V-9.16H14.48Q15.98 -9.16 17.03 -8.64Q18.09 -8.11 18.64 -7.09Q19.19 -6.07 19.19 -4.59Q19.19 -3.11 18.64 -2.09Q18.09 -1.06 17.03 -.53Q15.98 0 14.48 0ZM12.58 -1.13H14.39Q16.09 -1.13 16.94 -1.99Q17.78 -2.86 17.78 -4.59Q17.78 -6.32 16.93 -7.18Q16.09 -8.04 14.39 -8.04H12.58ZM22.82 0V-9.16H28.64V-8.08H24.16V-5.15H28.37V-4.06H24.16V0ZM39.98 0 35.94 -9.16H37.37L40.83 -1.14H40.35L43.79 -9.16H45.18L41.14 0ZM48 0V-9.16H49.34V0ZM53.29 0V-9.16H59.22V-8.08H54.59V-5.2H58.94V-4.11H54.59V-1.09H59.22V0ZM65.26 0 62.04 -9.16H63.43L66.12 -1.24H65.64L68.41 -9.16H69.44L72.15 -1.24H71.72L74.44 -9.16H75.76L72.52 0H71.38L68.75 -7.53H69.04L66.4 0ZM78.98 0V-9.16H84.91V-8.08H80.28V-5.2H84.63V-4.11H80.28V-1.09H84.91V0ZM88.46 0V-9.16H92.24Q93.73 -9.16 94.54 -8.46Q95.34 -7.76 95.34 -6.47Q95.34 -5.64 94.98 -5.05Q94.61 -4.45 93.92 -4.13Q93.23 -3.82 92.24 -3.82L92.37 -4H92.7Q93.23 -4 93.61 -3.74Q94 -3.48 94.3 -2.91L95.88 0H94.41L92.82 -2.93Q92.64 -3.26 92.42 -3.45Q92.21 -3.63 91.93 -3.71Q91.64 -3.78 91.27 -3.78H89.8V0ZM89.8 -4.8H92.03Q93.02 -4.8 93.53 -5.22Q94.03 -5.63 94.03 -6.45Q94.03 -7.26 93.53 -7.67Q93.02 -8.09 92.03 -8.09H89.8ZM106.65 -.52V-3.25H103.97V-4.21H106.65V-6.86H107.65V-4.21H110.32V-3.25H107.65V-.52ZM119.18 0V-9.16H125.11V-8.08H120.47V-5.2H124.83V-4.11H120.47V-1.09H125.11V0ZM128.65 0V-9.16H131.89Q133.4 -9.16 134.45 -8.64Q135.5 -8.11 136.05 -7.09Q136.61 -6.07 136.61 -4.59Q136.61 -3.11 136.05 -2.09Q135.5 -1.06 134.45 -.53Q133.4 0 131.89 0ZM130 -1.13H131.8Q133.51 -1.13 134.36 -1.99Q135.2 -2.86 135.2 -4.59Q135.2 -6.32 134.35 -7.18Q133.5 -8.04 131.8 -8.04H130ZM140.24 0V-9.16H141.58V0ZM147.76 0V-8.03H144.51V-9.16H152.35V-8.03H149.1V0ZM159.26 .12Q158.28 .12 157.49 -.21Q156.7 -.54 156.14 -1.16Q155.58 -1.78 155.27 -2.65Q154.97 -3.52 154.97 -4.59Q154.97 -5.67 155.27 -6.54Q155.57 -7.4 156.13 -8.01Q156.69 -8.63 157.49 -8.96Q158.28 -9.29 159.26 -9.29Q160.24 -9.29 161.03 -8.96Q161.83 -8.63 162.39 -8.02Q162.95 -7.41 163.25 -6.55Q163.55 -5.68 163.55 -4.6Q163.55 -3.52 163.25 -2.65Q162.95 -1.78 162.39 -1.16Q161.83 -.54 161.03 -.21Q160.24 .12 159.26 .12ZM159.26 -1.05Q160.18 -1.05 160.82 -1.47Q161.46 -1.88 161.8 -2.68Q162.15 -3.48 162.15 -4.59Q162.15 -5.71 161.81 -6.5Q161.47 -7.29 160.83 -7.7Q160.18 -8.12 159.26 -8.12Q158.36 -8.12 157.71 -7.7Q157.06 -7.29 156.72 -6.5Q156.38 -5.71 156.38 -4.59Q156.38 -3.48 156.72 -2.68Q157.06 -1.89 157.71 -1.47Q158.36 -1.05 159.26 -1.05ZM167.19 0V-9.16H170.97Q172.46 -9.16 173.27 -8.46Q174.07 -7.76 174.07 -6.47Q174.07 -5.64 173.7 -5.05Q173.34 -4.45 172.65 -4.13Q171.95 -3.82 170.97 -3.82L171.1 -4H171.43Q171.95 -4 172.34 -3.74Q172.72 -3.48 173.03 -2.91L174.61 0H173.13L171.55 -2.93Q171.37 -3.26 171.15 -3.45Q170.93 -3.63 170.65 -3.71Q170.37 -3.78 170 -3.78H168.53V0ZM168.53 -4.8H170.75Q171.75 -4.8 172.25 -5.22Q172.76 -5.63 172.76 -6.45Q172.76 -7.26 172.25 -7.67Q171.75 -8.09 170.75 -8.09H168.53Z"/>
</svg>
