<svg xmlns="http://www.w3.org/2000/svg" width="1280" height="640" viewBox="0 0 1280 640" fill="none" role="img" aria-label="KlarPDF — PDF viewer + editor">
  <defs>
    <linearGradient id="g" x1="0" y1="0" x2="1" y2="1">
      <stop offset="0" stop-color="#13B8A6"/><stop offset="1" stop-color="#3B82F6"/>
    </linearGradient>
  </defs>
  <rect width="1280" height="640" rx="0" fill="url(#g)"/>
  <g transform="translate(235.01 106.32) scale(1.6565)" fill="none" stroke="#FFFFFF"
     stroke-width="11" stroke-linecap="round" stroke-linejoin="round">
    <path d="M66 190 L66 60 Q66 44 82 44 L150 44"/>
    <path d="M92 60 L146 60 L182 96 L182 198 Q182 214 166 214 L96 214 Q80 214 80 198 L80 74 Q80 60 92 60 Z"/>
    <path d="M146 60 L146 96 L182 96"/>
    <path d="M80 156 L182 156"/>
    <path d="M80 182 L182 182"/>
    <path d="M131 159 L142 169 L131 179 L120 169 Z" fill="#FFFFFF" stroke="none"/>
  </g>
  <path transform="translate(573.93 347.04)" fill="#FFFFFF" d="M13.34 0Q11.08 0 9.61 -1.52Q8.14 -3.04 8.14 -5.28V-71.68Q8.14 -73.92 9.61 -75.44Q11.08 -76.96 13.34 -76.96Q15.6 -76.96 17.07 -75.44Q18.54 -73.92 18.54 -71.68V-5.28Q18.54 -3.04 17.07 -1.52Q15.6 0 13.34 0ZM47.16 -54.86Q49.17 -54.86 50.65 -53.22Q52.13 -51.58 52.13 -49.95Q52.13 -47.84 50.08 -46.05L17.58 -16.93L17.13 -28.94L43.39 -53.22Q45.03 -54.86 47.16 -54.86ZM48.49 -.08Q46.25 -.08 44.67 -1.82L23.95 -23.82L31.82 -31.04L52.13 -9.1Q53.77 -7.38 53.77 -5.2Q53.77 -2.91 51.96 -1.49Q50.15 -.08 48.49 -.08ZM76.07 -5.28Q76.07 -3.04 74.55 -1.52Q73.03 0 70.79 0Q68.61 0 67.14 -1.52Q65.67 -3.04 65.67 -5.28V-71.68Q65.67 -73.92 67.19 -75.44Q68.71 -76.96 70.95 -76.96Q73.21 -76.96 74.64 -75.44Q76.07 -73.92 76.07 -71.68ZM135.89 -55.48Q138.15 -55.48 139.62 -54Q141.09 -52.52 141.09 -50.21V-5.28Q141.09 -3.04 139.61 -1.52Q138.13 0 135.89 0Q133.63 0 132.16 -1.52Q130.69 -3.04 130.69 -5.28V-12.79L132.82 -12.43Q132.82 -10.58 131.31 -8.28Q129.81 -5.98 127.21 -3.87Q124.61 -1.77 121.08 -.36Q117.56 1.04 113.45 1.04Q106.33 1.04 100.59 -2.64Q94.86 -6.32 91.55 -12.75Q88.23 -19.19 88.23 -27.46Q88.23 -35.83 91.56 -42.22Q94.89 -48.62 100.54 -52.26Q106.2 -55.9 113.14 -55.9Q117.61 -55.9 121.41 -54.48Q125.2 -53.07 128.01 -50.78Q130.82 -48.49 132.37 -45.92Q133.91 -43.34 133.91 -41.11L130.69 -40.74V-50.21Q130.69 -52.44 132.16 -53.96Q133.63 -55.48 135.89 -55.48ZM114.67 -8.53Q119.56 -8.53 123.28 -11.01Q127 -13.49 129.09 -17.8Q131.18 -22.1 131.18 -27.46Q131.18 -32.81 129.09 -37.09Q127 -41.37 123.28 -43.85Q119.56 -46.33 114.67 -46.33Q109.89 -46.33 106.17 -43.88Q102.45 -41.42 100.35 -37.15Q98.24 -32.89 98.24 -27.46Q98.24 -22.1 100.34 -17.8Q102.43 -13.49 106.15 -11.01Q109.86 -8.53 114.67 -8.53ZM160.27 0Q158.01 0 156.54 -1.52Q155.07 -3.04 155.07 -5.28V-49.43Q155.07 -51.66 156.55 -53.18Q158.04 -54.7 160.27 -54.7Q162.53 -54.7 164 -53.18Q165.47 -51.66 165.47 -49.43V-37.7L164.48 -42.25Q165.34 -45.14 167.06 -47.62Q168.77 -50.1 171.17 -51.97Q173.56 -53.85 176.48 -54.87Q179.41 -55.9 182.63 -55.9Q185.34 -55.9 187.35 -54.47Q189.37 -53.04 189.37 -50.86Q189.37 -48.05 187.91 -46.76Q186.45 -45.47 184.69 -45.47Q183.05 -45.47 181.62 -46.14Q180.19 -46.8 178.21 -46.8Q175.98 -46.8 173.73 -45.64Q171.48 -44.49 169.61 -42.26Q167.73 -40.04 166.6 -37.01Q165.47 -33.98 165.47 -30.26V-5.28Q165.47 -3.04 163.99 -1.52Q162.51 0 160.27 0ZM225.68 -55.64Q232.88 -55.64 238.56 -52.01Q244.25 -48.39 247.57 -42.05Q250.9 -35.72 250.9 -27.4Q250.9 -19.11 247.57 -12.73Q244.25 -6.34 238.63 -2.7Q233.01 .94 225.99 .94Q222.02 .94 218.49 -.32Q214.97 -1.59 212.23 -3.6Q209.48 -5.62 207.79 -7.89Q206.1 -10.17 205.69 -12.12L208.44 -13.49V15.52Q208.44 17.76 206.98 19.28Q205.51 20.8 203.24 20.8Q201.01 20.8 199.53 19.32Q198.04 17.84 198.04 15.52V-49.58Q198.04 -51.82 199.51 -53.34Q200.98 -54.86 203.24 -54.86Q205.51 -54.86 206.98 -53.34Q208.44 -51.82 208.44 -49.58V-42.43L206.78 -43.32Q207.14 -45.29 208.78 -47.44Q210.42 -49.58 212.99 -51.47Q215.57 -53.35 218.83 -54.5Q222.09 -55.64 225.68 -55.64ZM224.46 -46.07Q219.55 -46.07 215.84 -43.63Q212.14 -41.18 210.04 -37Q207.95 -32.81 207.95 -27.4Q207.95 -22.1 210.04 -17.81Q212.14 -13.52 215.84 -11.08Q219.55 -8.63 224.46 -8.63Q229.35 -8.63 233.01 -11.08Q236.68 -13.52 238.79 -17.81Q240.89 -22.1 240.89 -27.4Q240.89 -32.79 238.79 -36.98Q236.68 -41.18 233.01 -43.63Q229.35 -46.07 224.46 -46.07ZM307.03 -76.96Q309.29 -76.96 310.76 -75.48Q312.23 -74 312.23 -71.68V-5.28Q312.23 -3.04 310.75 -1.52Q309.27 0 307.03 0Q304.77 0 303.3 -1.52Q301.83 -3.04 301.83 -5.28V-12.79L303.96 -12.66Q303.96 -10.76 302.47 -8.42Q300.97 -6.08 298.36 -3.94Q295.75 -1.79 292.22 -.38Q288.7 1.04 284.59 1.04Q277.49 1.04 271.76 -2.63Q266.03 -6.29 262.7 -12.71Q259.37 -19.14 259.37 -27.4Q259.37 -35.75 262.7 -42.17Q266.03 -48.59 271.68 -52.25Q277.34 -55.9 284.28 -55.9Q288.7 -55.9 292.48 -54.48Q296.27 -53.07 299.09 -50.78Q301.91 -48.49 303.48 -45.92Q305.05 -43.34 305.05 -41.11L301.83 -40.74V-71.68Q301.83 -73.92 303.3 -75.44Q304.77 -76.96 307.03 -76.96ZM285.81 -8.53Q290.73 -8.53 294.43 -11Q298.14 -13.47 300.23 -17.76Q302.32 -22.05 302.32 -27.4Q302.32 -32.84 300.23 -37.11Q298.14 -41.39 294.42 -43.86Q290.7 -46.33 285.81 -46.33Q281.03 -46.33 277.31 -43.86Q273.59 -41.39 271.49 -37.11Q269.38 -32.84 269.38 -27.4Q269.38 -22.07 271.49 -17.78Q273.59 -13.49 277.31 -11.01Q281.03 -8.53 285.81 -8.53ZM351.72 -76.83Q353.75 -76.83 355.81 -76.31Q357.88 -75.79 359.3 -74.58Q360.71 -73.37 360.71 -71.34Q360.71 -69.21 359.44 -67.91Q358.17 -66.61 356.48 -66.61Q355.51 -66.61 353.75 -67.12Q351.98 -67.63 350.21 -67.63Q347.74 -67.63 346.28 -66.53Q344.83 -65.44 344.22 -63.83Q343.61 -62.22 343.61 -60.61V-5.28Q343.61 -3.04 342.12 -1.52Q340.64 0 338.41 0Q336.14 0 334.67 -1.52Q333.21 -3.04 333.21 -5.28V-60.53Q333.21 -67.68 337.96 -72.25Q342.72 -76.83 351.72 -76.83ZM353.77 -53.77Q355.85 -53.77 357.24 -52.42Q358.63 -51.06 358.63 -48.98Q358.63 -46.9 357.24 -45.55Q355.85 -44.2 353.77 -44.2H326.91Q324.86 -44.2 323.46 -45.56Q322.05 -46.93 322.05 -48.98Q322.05 -51.09 323.46 -52.43Q324.86 -53.77 326.91 -53.77Z"/>
  <path transform="translate(573.93 396.24)" fill="#FFFFFF" opacity="0.82" d="M1.48 0V-12.69H6.73Q8.11 -12.69 9.07 -12.24Q10.02 -11.78 10.52 -10.92Q11.02 -10.05 11.02 -8.81Q11.02 -7.59 10.52 -6.72Q10.02 -5.85 9.07 -5.39Q8.11 -4.92 6.73 -4.92H3.34V0ZM3.34 -6.42H6.47Q7.82 -6.42 8.51 -7.03Q9.2 -7.64 9.2 -8.81Q9.2 -9.99 8.51 -10.59Q7.82 -11.19 6.47 -11.19H3.34ZM15.56 0V-12.69H20.04Q22.13 -12.69 23.59 -11.96Q25.04 -11.22 25.81 -9.81Q26.57 -8.4 26.57 -6.35Q26.57 -4.31 25.81 -2.89Q25.04 -1.47 23.59 -.74Q22.13 0 20.04 0ZM17.42 -1.56H19.92Q22.28 -1.56 23.45 -2.76Q24.62 -3.96 24.62 -6.35Q24.62 -8.75 23.45 -9.94Q22.27 -11.13 19.92 -11.13H17.42ZM31.6 0V-12.69H39.65V-11.18H33.46V-7.13H39.28V-5.62H33.46V0ZM55.36 0 49.76 -12.69H51.75L56.54 -1.58H55.87L60.64 -12.69H62.55L56.96 0ZM66.46 0V-12.69H68.32V0ZM73.79 0V-12.69H82V-11.18H75.58V-7.2H81.61V-5.69H75.58V-1.51H82V0ZM90.36 0 85.91 -12.69H87.83L91.55 -1.72H90.88L94.72 -12.69H96.14L99.9 -1.72H99.3L103.07 -12.69H104.89L100.41 0H98.83L95.2 -10.43H95.6L91.93 0ZM109.36 0V-12.69H117.57V-11.18H111.15V-7.2H117.18V-5.69H111.15V-1.51H117.57V0ZM122.48 0V-12.69H127.72Q129.79 -12.69 130.9 -11.71Q132.01 -10.74 132.01 -8.96Q132.01 -7.82 131.51 -6.99Q131 -6.16 130.04 -5.72Q129.08 -5.29 127.72 -5.29L127.9 -5.54H128.36Q129.08 -5.54 129.62 -5.18Q130.15 -4.82 130.57 -4.04L132.76 0H130.72L128.52 -4.06Q128.27 -4.52 127.97 -4.78Q127.67 -5.03 127.28 -5.13Q126.89 -5.23 126.37 -5.23H124.34V0ZM124.34 -6.65H127.42Q128.8 -6.65 129.5 -7.22Q130.2 -7.8 130.2 -8.93Q130.2 -10.05 129.5 -10.62Q128.8 -11.19 127.42 -11.19H124.34ZM147.66 -.72V-4.5H143.96V-5.83H147.66V-9.5H149.05V-5.83H152.75V-4.5H149.05V-.72ZM165.01 0V-12.69H173.22V-11.18H166.81V-7.2H172.84V-5.69H166.81V-1.51H173.22V0ZM178.14 0V-12.69H182.62Q184.71 -12.69 186.16 -11.96Q187.62 -11.22 188.38 -9.81Q189.15 -8.4 189.15 -6.35Q189.15 -4.31 188.38 -2.89Q187.62 -1.47 186.16 -.74Q184.71 0 182.62 0ZM179.99 -1.56H182.5Q184.86 -1.56 186.03 -2.76Q187.2 -3.96 187.2 -6.35Q187.2 -8.75 186.02 -9.94Q184.85 -11.13 182.5 -11.13H179.99ZM194.17 0V-12.69H196.03V0ZM204.59 0V-11.12H200.1V-12.69H210.95V-11.12H206.45V0ZM220.51 .17Q219.16 .17 218.06 -.29Q216.97 -.74 216.19 -1.6Q215.41 -2.46 214.99 -3.66Q214.57 -4.87 214.57 -6.35Q214.57 -7.85 214.99 -9.05Q215.41 -10.25 216.18 -11.1Q216.96 -11.95 218.06 -12.4Q219.15 -12.86 220.51 -12.86Q221.87 -12.86 222.97 -12.41Q224.07 -11.95 224.85 -11.11Q225.63 -10.26 226.04 -9.06Q226.46 -7.87 226.46 -6.37Q226.46 -4.87 226.04 -3.67Q225.62 -2.46 224.84 -1.6Q224.07 -.74 222.97 -.29Q221.87 .17 220.51 .17ZM220.51 -1.45Q221.78 -1.45 222.67 -2.03Q223.56 -2.61 224.04 -3.71Q224.51 -4.81 224.51 -6.35Q224.51 -7.91 224.04 -9Q223.57 -10.09 222.68 -10.67Q221.79 -11.24 220.51 -11.24Q219.26 -11.24 218.37 -10.67Q217.47 -10.09 217 -9Q216.52 -7.9 216.52 -6.35Q216.52 -4.82 217 -3.72Q217.47 -2.61 218.37 -2.03Q219.26 -1.45 220.51 -1.45ZM231.49 0V-12.69H236.73Q238.79 -12.69 239.91 -11.71Q241.02 -10.74 241.02 -8.96Q241.02 -7.82 240.51 -6.99Q240.01 -6.16 239.05 -5.72Q238.09 -5.29 236.73 -5.29L236.9 -5.54H237.37Q238.09 -5.54 238.62 -5.18Q239.16 -4.82 239.58 -4.04L241.77 0H239.72L237.53 -4.06Q237.28 -4.52 236.98 -4.78Q236.68 -5.03 236.29 -5.13Q235.9 -5.23 235.38 -5.23H233.35V0ZM233.35 -6.65H236.43Q237.81 -6.65 238.51 -7.22Q239.2 -7.8 239.2 -8.93Q239.2 -10.05 238.51 -10.62Q237.81 -11.19 236.43 -11.19H233.35Z"/>
</svg>
